<svg id="visual" viewBox="0 0 1400 50" width="1400" height="50" xmlns="http://www.w3.org/2000/svg" xmlns:xlink="http://www.w3.org/1999/xlink" version="1.1"><rect x="0" y="0" width="1400" height="50" fill="#8ed1d1"></rect><path d="M0 28L26 25C52 22 104 16 155.8 12.2C207.7 8.3 259.3 6.7 311.2 7.3C363 8 415 11 466.8 16.7C518.7 22.3 570.3 30.7 622.2 32.3C674 34 726 29 777.8 25.5C829.7 22 881.3 20 933.2 18.7C985 17.3 1037 16.7 1088.8 18.8C1140.7 21 1192.3 26 1244.2 25.8C1296 25.7 1348 20.3 1374 17.7L1400 15L1400 0L1374 0C1348 0 1296 0 1244.2 0C1192.3 0 1140.7 0 1088.8 0C1037 0 985 0 933.2 0C881.3 0 829.7 0 777.8 0C726 0 674 0 622.2 0C570.3 0 518.7 0 466.8 0C415 0 363 0 311.2 0C259.3 0 207.7 0 155.8 0C104 0 52 0 26 0L0 0Z" fill="#fff" stroke-linecap="round" stroke-linejoin="miter"></path></svg>