<svg id="visual" viewBox="0 0 1400 50" width="1400" height="50" xmlns="http://www.w3.org/2000/svg" xmlns:xlink="http://www.w3.org/1999/xlink" version="1.1"><rect x="0" y="0" width="1400" height="50" fill="#59A59E"></rect><path d="M0 20L26 19.5C52 19 104 18 155.8 15.7C207.7 13.3 259.3 9.7 311.2 12.3C363 15 415 24 466.8 25.5C518.7 27 570.3 21 622.2 21.8C674 22.7 726 30.3 777.8 34.3C829.7 38.3 881.3 38.7 933.2 36C985 33.3 1037 27.7 1088.8 25.8C1140.7 24 1192.3 26 1244.2 26.8C1296 27.7 1348 27.3 1374 27.2L1400 27L1400 0L1374 0C1348 0 1296 0 1244.2 0C1192.3 0 1140.7 0 1088.8 0C1037 0 985 0 933.2 0C881.3 0 829.7 0 777.8 0C726 0 674 0 622.2 0C570.3 0 518.7 0 466.8 0C415 0 363 0 311.2 0C259.3 0 207.7 0 155.8 0C104 0 52 0 26 0L0 0Z" fill="#fff" stroke-linecap="round" stroke-linejoin="miter"></path></svg>