<svg id="visual" viewBox="0 0 1400 50" width="1400" height="50" xmlns="http://www.w3.org/2000/svg" xmlns:xlink="http://www.w3.org/1999/xlink" version="1.1"><rect x="0" y="0" width="1400" height="50" fill="#fff"></rect><path d="M0 20L26 23C52 26 104 32 155.8 35.8C207.7 39.7 259.3 41.3 311.2 40.7C363 40 415 37 466.8 31.3C518.7 25.7 570.3 17.3 622.2 15.7C674 14 726 19 777.8 22.5C829.7 26 881.3 28 933.2 29.3C985 30.7 1037 31.3 1088.8 29.2C1140.7 27 1192.3 22 1244.2 22.2C1296 22.3 1348 27.7 1374 30.3L1400 33L1400 51L1374 51C1348 51 1296 51 1244.2 51C1192.3 51 1140.7 51 1088.8 51C1037 51 985 51 933.2 51C881.3 51 829.7 51 777.8 51C726 51 674 51 622.2 51C570.3 51 518.7 51 466.8 51C415 51 363 51 311.2 51C259.3 51 207.7 51 155.8 51C104 51 52 51 26 51L0 51Z" fill="#FDF8EF" stroke-linecap="round" stroke-linejoin="miter"></path></svg>