<svg id="visual" viewBox="0 0 1400 50" width="1400" height="50" xmlns="http://www.w3.org/2000/svg" xmlns:xlink="http://www.w3.org/1999/xlink" version="1.1"><rect x="0" y="0" width="1400" height="50" fill="#FFFFFF"></rect><path d="M0 23L13 22.7C26 22.3 52 21.7 78 21.7C104 21.7 130 22.3 155.8 21.3C181.7 20.3 207.3 17.7 233.2 20C259 22.3 285 29.7 311 31.2C337 32.7 363 28.3 389 23.7C415 19 441 14 466.8 14.5C492.7 15 518.3 21 544.2 24.7C570 28.3 596 29.7 622 30.3C648 31 674 31 700 28.7C726 26.3 752 21.7 778 20.7C804 19.7 830 22.3 855.8 25.7C881.7 29 907.3 33 933.2 32.3C959 31.7 985 26.3 1011 22.8C1037 19.3 1063 17.7 1089 17.7C1115 17.7 1141 19.3 1166.8 19C1192.7 18.7 1218.3 16.3 1244.2 18.2C1270 20 1296 26 1322 26C1348 26 1374 20 1387 17L1400 14L1400 0L1387 0C1374 0 1348 0 1322 0C1296 0 1270 0 1244.2 0C1218.3 0 1192.7 0 1166.8 0C1141 0 1115 0 1089 0C1063 0 1037 0 1011 0C985 0 959 0 933.2 0C907.3 0 881.7 0 855.8 0C830 0 804 0 778 0C752 0 726 0 700 0C674 0 648 0 622 0C596 0 570 0 544.2 0C518.3 0 492.7 0 466.8 0C441 0 415 0 389 0C363 0 337 0 311 0C285 0 259 0 233.2 0C207.3 0 181.7 0 155.8 0C130 0 104 0 78 0C52 0 26 0 13 0L0 0Z" fill="#8ed1d1" stroke-linecap="round" stroke-linejoin="miter"></path></svg>