<svg width="1728" height="458" viewBox="0 0 1728 458" fill="none" xmlns="http://www.w3.org/2000/svg">
<path d="M-4477 -155.998L-4477 242.961C-4382.62 246.13 -4324.64 143.303 -4230.4 148.548C-4147.72 153.138 -4104.89 238.153 -4022.64 245.365C-3942.68 252.468 -3881.71 182.095 -3801.31 180.347C-3749.48 179.145 -3703.5 207.119 -3651.81 211.272C-3557.57 218.811 -3464.04 146.691 -3377.65 176.304C-3276.7 210.944 -3292.98 351.142 -3186.17 372.997C-3112.35 388.077 -3049.52 331.036 -3013.11 279.568C-2976.7 228.1 -2929.01 167.125 -2852.61 167.343C-2781.22 167.343 -2730.96 221.98 -2661.99 233.672C-2559.61 251.047 -2456.51 169.638 -2357.42 195.645C-2315.86 206.572 -2284.16 234.984 -2241.33 242.196C-2166.22 254.871 -2102.82 199.251 -2028.71 183.188C-1907.91 156.962 -1796.53 238.59 -1717.71 313.442C-1638.89 388.295 -1534.66 472.545 -1411.57 453.968C-1215.09 424.464 -1191.24 167.561 -992.766 148.001C-866.396 135.435 -747.594 234.655 -625.508 206.79C-588.668 198.376 -557.397 178.926 -520.842 169.856C-392.331 138.057 -276.385 237.824 -145.16 260.116C-49.3478 276.398 78.4498 253.997 126.142 168.326C154.7 115.219 234.948 131.828 281.498 163.299C328.048 194.77 368.315 241.102 430.286 243.069C524.67 246.238 582.786 143.411 677.028 148.656C759.561 153.246 802.541 238.261 884.789 245.473C964.609 252.576 1025.58 182.203 1105.97 180.455C1157.95 179.253 1203.93 207.227 1255.47 211.379C1349.71 218.919 1443.24 146.799 1529.77 176.412C1630.58 211.052 1614.31 351.25 1721.11 373.105C1794.94 388.185 1857.76 331.144 1894.18 279.676C1930.59 228.208 1978.28 167.233 2054.67 167.451C2125.35 167.451 2176.33 222.088 2245.3 233.78C2347.82 251.155 2450.77 169.746 2550.01 195.753C2591.42 206.68 2623.12 235.092 2665.96 242.304C2741.07 254.979 2804.61 199.359 2878.57 183.296C2999.52 157.07 3110.89 238.698 3189.71 313.55C3268.54 388.403 3372.63 472.981 3496 454.404C3692.34 424.9 3716.18 167.997 3914.66 148.437C4041.03 135.87 4159.98 235.091 4282.06 207.226C4318.9 198.812 4350.03 179.361 4386.59 170.292C4515.1 138.493 4631.04 238.26 4762.41 260.552C4858.22 276.834 4985.88 254.432 5033.71 168.762C5062.27 115.655 5142.66 132.264 5189.07 163.735C5235.48 195.206 5275.89 241.538 5338 243.505L5338 -156.001L-4477 -155.998Z" fill="#8ED1D1"/>
</svg>
