<svg id="visual" viewBox="0 0 2600 50" width="2600" height="50" xmlns="http://www.w3.org/2000/svg" xmlns:xlink="http://www.w3.org/1999/xlink" version="1.1"><rect x="0" y="0" width="2600" height="50" fill="#F8F7F0"></rect><path d="M0 25L22.8 23.8C45.7 22.7 91.3 20.3 137 21.7C182.7 23 228.3 28 274 27.7C319.7 27.3 365.3 21.7 410.8 21.2C456.3 20.7 501.7 25.3 547.2 26.5C592.7 27.7 638.3 25.3 684 24.2C729.7 23 775.3 23 821 24.7C866.7 26.3 912.3 29.7 958 28.8C1003.7 28 1049.3 23 1095 20.3C1140.7 17.7 1186.3 17.3 1231.8 19.2C1277.3 21 1322.7 25 1368.2 25.2C1413.7 25.3 1459.3 21.7 1505 20C1550.7 18.3 1596.3 18.7 1642 19.2C1687.7 19.7 1733.3 20.3 1779 19.5C1824.7 18.7 1870.3 16.3 1916 15.7C1961.7 15 2007.3 16 2052.8 16.3C2098.3 16.7 2143.7 16.3 2189.2 16.8C2234.7 17.3 2280.3 18.7 2326 19C2371.7 19.3 2417.3 18.7 2463 20.7C2508.7 22.7 2554.3 27.3 2577.2 29.7L2600 32L2600 0L2577.2 0C2554.3 0 2508.7 0 2463 0C2417.3 0 2371.7 0 2326 0C2280.3 0 2234.7 0 2189.2 0C2143.7 0 2098.3 0 2052.8 0C2007.3 0 1961.7 0 1916 0C1870.3 0 1824.7 0 1779 0C1733.3 0 1687.7 0 1642 0C1596.3 0 1550.7 0 1505 0C1459.3 0 1413.7 0 1368.2 0C1322.7 0 1277.3 0 1231.8 0C1186.3 0 1140.7 0 1095 0C1049.3 0 1003.7 0 958 0C912.3 0 866.7 0 821 0C775.3 0 729.7 0 684 0C638.3 0 592.7 0 547.2 0C501.7 0 456.3 0 410.8 0C365.3 0 319.7 0 274 0C228.3 0 182.7 0 137 0C91.3 0 45.7 0 22.8 0L0 0Z" fill="#8ED1D1" stroke-linecap="round" stroke-linejoin="miter"></path></svg>