<svg id="visual" viewBox="0 0 2600 100" width="2600" height="100" xmlns="http://www.w3.org/2000/svg" xmlns:xlink="http://www.w3.org/1999/xlink" version="1.1"><rect x="0" y="0" width="2600" height="100" fill="#59A59E"></rect><path d="M0 57L39.3 58.5C78.7 60 157.3 63 236.2 56.5C315 50 394 34 472.8 35.7C551.7 37.3 630.3 56.7 709 57.3C787.7 58 866.3 40 945.2 40.2C1024 40.3 1103 58.7 1181.8 68.3C1260.7 78 1339.3 79 1418.2 76.7C1497 74.3 1576 68.7 1654.8 58C1733.7 47.3 1812.3 31.7 1891 26.3C1969.7 21 2048.3 26 2127.2 30.7C2206 35.3 2285 39.7 2363.8 43.8C2442.7 48 2521.3 52 2560.7 54L2600 56L2600 0L2560.7 0C2521.3 0 2442.7 0 2363.8 0C2285 0 2206 0 2127.2 0C2048.3 0 1969.7 0 1891 0C1812.3 0 1733.7 0 1654.8 0C1576 0 1497 0 1418.2 0C1339.3 0 1260.7 0 1181.8 0C1103 0 1024 0 945.2 0C866.3 0 787.7 0 709 0C630.3 0 551.7 0 472.8 0C394 0 315 0 236.2 0C157.3 0 78.7 0 39.3 0L0 0Z" fill="#F0ECDC" stroke-linecap="round" stroke-linejoin="miter"></path></svg>