<svg id="visual" viewBox="0 0 2600 100" width="2600" height="100" xmlns="http://www.w3.org/2000/svg" xmlns:xlink="http://www.w3.org/1999/xlink" version="1.1"><rect x="0" y="0" width="2600" height="100" fill="#000"></rect><path d="M0 12L48.2 13C96.3 14 192.7 16 289 21.5C385.3 27 481.7 36 578 43.3C674.3 50.7 770.7 56.3 867 57C963.3 57.7 1059.7 53.3 1155.8 53.2C1252 53 1348 57 1444.2 51C1540.3 45 1636.7 29 1733 19.8C1829.3 10.7 1925.7 8.3 2022 11.5C2118.3 14.7 2214.7 23.3 2311 34C2407.3 44.7 2503.7 57.3 2551.8 63.7L2600 70L2600 0L2551.8 0C2503.7 0 2407.3 0 2311 0C2214.7 0 2118.3 0 2022 0C1925.7 0 1829.3 0 1733 0C1636.7 0 1540.3 0 1444.2 0C1348 0 1252 0 1155.8 0C1059.7 0 963.3 0 867 0C770.7 0 674.3 0 578 0C481.7 0 385.3 0 289 0C192.7 0 96.3 0 48.2 0L0 0Z" fill="#F8F7F0" stroke-linecap="round" stroke-linejoin="miter"></path></svg>