<svg id="visual" viewBox="0 0 2600 100" width="2600" height="100" xmlns="http://www.w3.org/2000/svg" xmlns:xlink="http://www.w3.org/1999/xlink" version="1.1"><rect x="0" y="0" width="2600" height="100" fill="#F0ECDC"></rect><path d="M0 33L25.5 38.2C51 43.3 102 53.7 153 52.3C204 51 255 38 306 31.3C357 24.7 408 24.3 459 23.2C510 22 561 20 612 20.8C663 21.7 714 25.3 765 33.3C816 41.3 867 53.7 918 60.7C969 67.7 1020 69.3 1071 68.7C1122 68 1173 65 1223.8 60.8C1274.7 56.7 1325.3 51.3 1376.2 51.7C1427 52 1478 58 1529 53.8C1580 49.7 1631 35.3 1682 34.2C1733 33 1784 45 1835 45C1886 45 1937 33 1988 26C2039 19 2090 17 2141 24.5C2192 32 2243 49 2294 51C2345 53 2396 40 2447 31.5C2498 23 2549 19 2574.5 17L2600 15L2600 0L2574.5 0C2549 0 2498 0 2447 0C2396 0 2345 0 2294 0C2243 0 2192 0 2141 0C2090 0 2039 0 1988 0C1937 0 1886 0 1835 0C1784 0 1733 0 1682 0C1631 0 1580 0 1529 0C1478 0 1427 0 1376.2 0C1325.3 0 1274.7 0 1223.8 0C1173 0 1122 0 1071 0C1020 0 969 0 918 0C867 0 816 0 765 0C714 0 663 0 612 0C561 0 510 0 459 0C408 0 357 0 306 0C255 0 204 0 153 0C102 0 51 0 25.5 0L0 0Z" fill="#F8F7F0" stroke-linecap="round" stroke-linejoin="miter"></path></svg>